<svg xmlns="http://www.w3.org/2000/svg" viewBox="0 0 800 400" width="800" height="400">
  <rect width="800" height="400" rx="16" fill="#eef1fb"/>
  <rect x="40" y="40" width="720" height="320" rx="12" fill="#ffffff" stroke="#c5cae9" stroke-width="2"/>
  <path d="M170 245 L195 200 Q205 188 228 185 L300 176 Q340 136 402 136 L478 136 Q518 136 548 166 L598 182 Q638 188 638 218 L638 245 Z" fill="#c5cae9"/>
  <path d="M230 210 Q330 150 400 190 T580 205" fill="none" stroke="#5c6bc0" stroke-width="6" stroke-linecap="round"/>
  <path d="M240 225 Q340 175 410 208 T570 222" fill="none" stroke="#7986cb" stroke-width="4" stroke-linecap="round" stroke-dasharray="10 8"/>
  <rect x="210" y="195" width="34" height="26" rx="5" fill="#3949ab"/>
  <rect x="560" y="192" width="34" height="26" rx="5" fill="#3949ab"/>
  <circle cx="260" cy="248" r="30" fill="#3949ab"/>
  <circle cx="260" cy="248" r="12" fill="#e8eaf6"/>
  <circle cx="560" cy="248" r="30" fill="#3949ab"/>
  <circle cx="560" cy="248" r="12" fill="#e8eaf6"/>
  <text x="400" y="96" font-family="sans-serif" font-size="30" font-weight="bold" fill="#3f51b5" text-anchor="middle">线束布置示意图</text>
  <text x="400" y="330" font-family="sans-serif" font-size="18" fill="#7986cb" text-anchor="middle">主干线束 · 分支走向</text>
</svg>
